<svg width="23" height="29" viewBox="0 0 23 29" fill="none" xmlns="http://www.w3.org/2000/svg">
<path d="M18.8759 1.55185C18.4378 0.908034 17.8166 0.442196 17.1016 0.197018C16.6726 0.0499113 16.2108 -0.0172856 15.7336 0.00450801C14.4848 0.073521 13.3745 0.763651 12.7944 1.87422L11.5055 4.25517L10.1931 1.88239C9.98357 1.51008 9.7167 1.18409 9.40429 0.913482C8.8077 0.397701 8.04535 0.086234 7.20922 0.0517274C6.96421 0.0490033 6.72557 0.0617162 6.49969 0.108028C5.52693 0.262399 4.66075 0.805422 4.11061 1.64448C3.37376 2.73779 3.31547 4.14257 3.93118 5.29672C4.5642 6.44542 5.77194 7.17551 7.09445 7.15462L9.11192 7.13828L11.6021 7.13373C11.6176 7.12829 11.6185 7.12738 11.6185 7.12738L15.9421 7.1183C16.3702 7.11013 16.7901 7.02931 17.1681 6.88947C17.9751 6.59162 18.6564 6.00319 19.0745 5.21408C19.692 4.05176 19.6182 2.64153 18.8759 1.55185Z" fill="#336699"/>
<path d="M18.4696 29H4.53041C2.02839 29 0 26.9778 0 24.4833V11.4271C0 8.93266 2.02839 6.9104 4.53041 6.9104H18.4696C20.9716 6.9104 23 8.93266 23 11.4271V24.4833C23 26.9778 20.9716 29 18.4696 29Z" fill="#FF6666"/>
<path d="M14.1067 6.80957H11.4999H8.89319V29H11.4999H14.1067V6.80957Z" fill="#336699"/>
<path d="M23 20.2707V17.6718V15.072H0V17.6718V20.2707H23Z" fill="#336699"/>
</svg>
