<svg width="68" height="83" viewBox="0 0 68 83" fill="none" xmlns="http://www.w3.org/2000/svg">
<g clip-path="url(#clip0)">
<path d="M53.1869 37.0918C54.5689 37.1866 56.018 37.2386 57.511 37.2386C60.9003 37.2386 64.0602 36.9761 66.7315 36.5252C66.9662 35.0479 67.1518 33.8824 67.2678 33.1522C64.126 33.7655 60.8281 33.9071 58.4585 33.9071C57.5213 33.9071 56.7284 33.885 56.1495 33.8616C55.153 33.8214 54.1654 33.7629 53.1869 33.6914C49.7021 33.4342 46.3359 32.9768 43.1348 32.3271C42.9685 33.364 38.4188 61.7762 37.176 69.5397C36.9787 70.7714 36.864 71.4847 36.864 71.4847C36.7273 72.3592 36.7595 73.1868 36.9374 73.9378C37.3049 75.4931 38.2924 76.7145 39.6783 77.3213C40.2959 77.5915 40.9921 77.741 41.7488 77.741H48.0209H54.293C55.6596 77.741 56.9837 77.2576 58.1066 76.4416C59.2836 75.5867 60.2351 74.3653 60.7766 72.9491C60.9558 72.48 61.0912 71.9902 61.1737 71.4847C61.1737 71.4847 61.8183 67.4296 62.6924 61.9282C60.0082 62.3843 56.8212 62.6104 53.4061 62.6104C53.3313 62.6104 53.2578 62.6091 53.1843 62.6091C49.8839 62.5974 46.8052 62.3388 44.1945 61.8984L44.201 61.862H44.1945L48.2968 36.5278C49.7911 36.7786 51.4348 36.9709 53.1869 37.0918Z" fill="#336699"/>
<path d="M57.511 37.2373C54.1268 37.2373 50.9682 36.9761 48.2995 36.5252L44.1971 61.8593H44.2036L44.1971 61.8957C46.8658 62.3466 50.0245 62.6077 53.4087 62.6077C56.8226 62.6077 60.0108 62.3817 62.695 61.9256C63.9842 53.814 65.7737 42.5593 66.7329 36.5239C64.0603 36.9761 60.9004 37.2373 57.511 37.2373Z" fill="#FF6666"/>
<path d="M3.36983 43.0802H8.16963C9.75409 43.0802 11.0395 41.7848 11.0395 40.1879V39.3811C11.0395 37.7842 9.75409 36.4888 8.16963 36.4888H3.36983C1.78536 36.4901 0.5 37.7842 0.5 39.3811V40.1879C0.5 41.7861 1.78536 43.0802 3.36983 43.0802Z" fill="#CCCCCC"/>
<path d="M18.1766 16.6417H20.9768C22.5613 16.6417 23.8466 15.3463 23.8466 13.7495V12.9426C23.8466 11.3457 22.5613 10.0503 20.9768 10.0503H18.1766C16.5921 10.0503 15.3068 11.3457 15.3068 12.9426V13.7495C15.3081 15.3476 16.5921 16.6417 18.1766 16.6417Z" fill="#CCCCCC"/>
<path d="M63.1371 0.123535H57.6128C57.3588 0.123535 57.11 0.379501 57.0571 0.696535L56.9424 1.37088H57.4465H62.9631H63.4092L63.5097 0.696535C63.5587 0.379501 63.3911 0.123535 63.1371 0.123535Z" fill="#FF6666"/>
<path d="M43.14 32.2963C43.1671 32.1286 43.2006 31.9597 43.238 31.7908C43.2857 31.5829 43.3411 31.375 43.4043 31.1684C43.4662 30.9657 43.5371 30.7631 43.6144 30.563C43.6905 30.3655 43.7743 30.1706 43.8645 29.9783C43.9535 29.7886 44.0502 29.6002 44.1533 29.4157C44.2552 29.2338 44.3635 29.0545 44.4769 28.879C44.4847 28.8673 44.4937 28.8557 44.5014 28.8427C44.6071 28.6815 44.7167 28.5243 44.8327 28.371C44.9552 28.2073 45.0841 28.0488 45.2169 27.8955C45.3484 27.7434 45.4864 27.5966 45.6269 27.455C45.7674 27.3147 45.9118 27.1808 46.0601 27.0522C46.2084 26.9249 46.3592 26.804 46.5139 26.691C46.6686 26.5779 46.8259 26.4714 46.9858 26.374C47.1456 26.2752 47.3081 26.1856 47.4718 26.1037C47.5543 26.0621 47.6368 26.0231 47.7193 25.9868C47.8212 25.9413 47.923 25.914 48.0262 25.8802C48.0958 25.8581 48.1641 25.8347 48.2337 25.8088C48.4284 25.7373 48.6231 25.6528 48.8139 25.558C49.0034 25.4631 49.1891 25.3566 49.3721 25.2397C49.5539 25.1227 49.7305 24.9954 49.9033 24.8589C50.0748 24.7225 50.2411 24.5757 50.4022 24.4198C50.5621 24.2652 50.7155 24.1014 50.8612 23.9299C51.5484 23.1244 52.0808 22.1447 52.3747 21.0727C52.6313 20.1346 52.6558 19.2004 52.7602 18.2662C52.8711 17.2774 53.1522 16.3367 53.4435 15.3622C53.6846 14.5528 53.9257 13.7433 54.1655 12.9338C54.4427 11.9983 54.7199 11.0615 54.9958 10.126L55.019 10.0493H38.0875H33.6152C31.8038 10.0493 30.3366 11.5292 30.3366 13.3548C30.3366 15.1803 31.8051 16.659 33.6152 16.659H38.0875H42.3536C44.1649 16.659 45.6321 18.1389 45.6321 19.9644C45.6321 21.79 44.1636 23.2686 42.3536 23.2686H26.6585H14.0627C12.2513 23.2686 10.7842 24.7485 10.7842 26.5741C10.7842 28.3996 12.2526 29.8795 14.0627 29.8795H26.6598H35.8546C37.6659 29.8795 39.1344 31.3594 39.1344 33.1837C39.1344 35.0092 37.6659 36.4892 35.8546 36.4892H26.6585H20.1298C18.3184 36.4892 16.85 37.9691 16.85 39.7946C16.85 41.6202 18.3184 43.0988 20.1298 43.0988H26.6585H29.6882C31.4995 43.0988 32.968 44.5787 32.968 46.4043C32.968 48.2298 31.4995 49.7084 29.6882 49.7084H26.6585H14.0627C12.2513 49.7084 10.7842 51.1883 10.7842 53.0139C10.7842 54.8394 12.2526 56.3194 14.0627 56.3194H24.82H26.6598H24.82C26.6314 56.3194 28.0998 57.7993 28.0998 59.6235C28.0998 61.4491 26.6314 62.929 24.82 62.929H26.6598H24.82H20.6764C18.8651 62.929 17.3979 64.4089 17.3979 66.2345C17.3979 68.06 18.8664 69.5386 20.6764 69.5386H26.6598H37.1773C38.4201 61.7752 42.9698 33.363 43.1361 32.3261C43.1387 32.3066 43.14 32.2963 43.14 32.2963Z" fill="#CCCCCC"/>
<path d="M67.1571 28.8803C67.0991 28.7075 67.0346 28.5372 66.9637 28.3735C66.8928 28.2098 66.8154 28.0513 66.7316 27.898C66.6478 27.746 66.5576 27.5991 66.4622 27.4575C66.3668 27.3172 66.2649 27.1834 66.1566 27.0547C66.0496 26.9274 65.9362 26.8066 65.8188 26.6935C65.7002 26.5805 65.5778 26.4739 65.4488 26.3765C65.3199 26.279 65.1871 26.1881 65.0492 26.1062C64.9796 26.0646 64.9099 26.0257 64.839 25.9893C64.7514 25.9438 64.6585 25.9165 64.5657 25.8827C64.5038 25.8607 64.442 25.8373 64.3814 25.8113C64.2086 25.7398 64.0423 25.6554 63.8811 25.5605C63.7226 25.4657 63.5691 25.3591 63.4247 25.2422C63.2804 25.1252 63.1437 24.9979 63.0161 24.8615C62.8884 24.725 62.7685 24.5782 62.6577 24.4223C62.5481 24.2677 62.4462 24.104 62.3547 23.9325C61.9254 23.1269 61.7049 22.1472 61.7526 21.0753C61.7952 20.1372 62.0685 19.2029 62.2619 18.2687C62.4656 17.28 62.4849 16.3392 62.5042 15.3648C62.521 14.5553 62.539 13.7458 62.5571 12.9363C62.579 12.0008 62.6009 11.064 62.6228 10.1285L62.6654 8.43679L62.9658 1.37109H57.4492L55.4947 8.43679L55.0203 10.0518L54.9945 10.1285C54.7186 11.064 54.4414 12.0008 54.1642 12.9363C53.9244 13.7458 53.6833 14.5553 53.4422 15.3648C53.1509 16.3392 52.8698 17.28 52.7589 18.2687C52.6545 19.2029 52.63 20.1372 52.3735 21.0753C52.0795 22.1459 51.5471 23.1269 50.8599 23.9325C50.7142 24.104 50.5608 24.2664 50.4009 24.4223C50.2411 24.5782 50.0735 24.725 49.902 24.8615C49.7292 24.9992 49.5526 25.1265 49.3708 25.2422C49.1891 25.3591 49.0021 25.4657 48.8126 25.5605C48.6218 25.6567 48.4284 25.7398 48.2324 25.8113C48.1641 25.836 48.0945 25.8607 48.0249 25.8827C47.9217 25.9152 47.8199 25.9438 47.718 25.9893C47.6355 26.0257 47.5517 26.0646 47.4705 26.1062C47.3068 26.1881 47.1443 26.2777 46.9845 26.3765C46.8246 26.4752 46.6673 26.5805 46.5126 26.6935C46.3579 26.8066 46.2071 26.9274 46.0588 27.0547C45.9105 27.1821 45.7661 27.3172 45.6256 27.4575C45.4851 27.5991 45.3471 27.746 45.2156 27.898C45.0829 28.0513 44.9539 28.2098 44.8315 28.3735C44.7167 28.5269 44.6058 28.6841 44.5001 28.8452C47.2758 29.3818 50.1818 29.7677 53.1857 29.999C54.2119 30.0782 55.2497 30.1393 56.2966 30.1822C60.3216 30.3472 64.3053 30.0497 67.2989 29.3818C67.2589 29.2116 67.2112 29.044 67.1571 28.8803Z" fill="#336699"/>
<path d="M67.4819 30.5642C67.4691 30.3667 67.4471 30.1718 67.4175 29.9795C67.3891 29.7898 67.3517 29.6014 67.3079 29.4169C67.3053 29.4052 67.3015 29.3935 67.2989 29.3818C64.3053 30.0497 60.3216 30.3459 56.2966 30.1822C55.2484 30.1393 54.2119 30.0783 53.1857 29.999C50.1818 29.7677 47.2758 29.3818 44.5001 28.8452C44.4924 28.8569 44.4834 28.8686 44.4756 28.8816C44.3622 29.057 44.2539 29.235 44.152 29.4182C44.0489 29.6027 43.9535 29.7898 43.8632 29.9808C43.773 30.1731 43.6892 30.3693 43.6131 30.5655C43.5358 30.7656 43.4662 30.967 43.403 31.171C43.3398 31.3776 43.2844 31.5855 43.2367 31.7934C43.198 31.961 43.1658 32.1299 43.1387 32.2988C43.1387 32.2988 43.1374 32.3092 43.1335 32.3287C46.3334 32.9783 49.7009 33.4357 53.1857 33.693C54.1642 33.7657 55.1517 33.8229 56.1483 33.8632C56.7272 33.8866 57.5201 33.9086 58.4573 33.9086C60.8256 33.9086 64.1248 33.767 67.2666 33.1537C67.3543 32.6015 67.402 32.2988 67.402 32.2988C67.4278 32.1312 67.4484 31.9623 67.4652 31.7947C67.4845 31.5868 67.4948 31.3789 67.4974 31.1723C67.5013 30.9657 67.4961 30.7643 67.4819 30.5642Z" fill="#FF6666"/>
<path d="M64.3465 79.5028C64.2163 76.8795 63.2919 75.1293 62.1007 73.9651C61.6842 73.5584 61.2369 73.2245 60.7779 72.9478C60.2364 74.3653 59.2837 75.5854 58.1079 76.4403C58.8595 76.7145 59.5196 77.0471 60.0985 77.4161C62.0014 78.6297 63.025 80.2278 63.5601 81.4063C63.4608 80.871 63.7547 80.1356 64.3465 79.5028Z" fill="#FF6666"/>
<path d="M67.1752 78.722C66.6814 78.1711 65.5159 78.4205 64.5735 79.2781C64.4935 79.3508 64.4188 79.4262 64.3466 79.5029C63.7548 80.1356 63.4596 80.8697 63.5601 81.4064C63.5898 81.5688 63.6543 81.713 63.7587 81.8299C64.2525 82.3808 65.4179 82.1314 66.3616 81.2738C67.3054 80.4163 67.6689 79.2729 67.1752 78.722Z" fill="#336699"/>
<path d="M36.9388 73.9367L36.913 73.9302C36.6075 74.9605 36.231 75.7713 35.8094 76.4028C35.6883 76.5834 35.5645 76.7484 35.4369 76.9004C33.6358 79.0508 31.212 78.4843 29.8854 77.9269C29.8455 77.91 29.8081 77.9061 29.772 77.9087C29.9228 77.9555 30.0543 78.0334 30.1562 78.1478C30.3676 78.3829 30.4205 78.7286 30.3392 79.1119C33.5881 82.3822 36.2968 81.196 38.1636 79.2665C38.5259 78.891 38.8572 78.4895 39.1537 78.0854C39.3432 77.8281 39.5173 77.5709 39.6784 77.3214C38.2938 76.7133 37.305 75.492 36.9388 73.9367Z" fill="#FF6666"/>
<path d="M30.1549 78.1477C30.053 78.0347 29.9215 77.9567 29.7707 77.9086C29.1892 77.7267 28.3009 78.0217 27.5519 78.7038C26.6082 79.5627 26.2433 80.7048 26.7371 81.2557C27.2309 81.8066 28.3963 81.5572 29.3401 80.6996C29.8802 80.2085 30.2296 79.6251 30.3379 79.1118C30.4191 78.7272 30.3663 78.3829 30.1549 78.1477Z" fill="#336699"/>
<path d="M52.7796 49.4481C52.5102 49.0752 52.3194 48.6269 52.2072 48.102C52.0963 47.577 52.0963 47.0131 52.2072 46.4077C52.3 45.8022 52.4908 45.2383 52.7796 44.7133C53.0671 44.1884 53.4114 43.7402 53.8123 43.3672C54.0676 43.1282 54.3422 42.9268 54.6323 42.754C54.5008 42.6565 54.3628 42.5669 54.212 42.4902C53.793 42.2784 53.3327 42.1719 52.8312 42.1719C52.3297 42.1719 51.8359 42.2784 51.3525 42.4902C50.869 42.702 50.4268 42.9943 50.0271 43.3672C49.6275 43.7402 49.2832 44.1897 48.9944 44.7133C48.7057 45.2383 48.5161 45.8035 48.422 46.4077C48.3111 47.0131 48.3111 47.5783 48.422 48.102C48.5342 48.6269 48.7237 49.0752 48.9944 49.4481C49.2639 49.821 49.6081 50.1133 50.0271 50.3251C50.4448 50.5369 50.9051 50.6421 51.4079 50.6421C51.9094 50.6421 52.4032 50.5369 52.8866 50.3251C53.0607 50.2484 53.2283 50.1588 53.3907 50.0613C53.1574 49.8885 52.9511 49.6871 52.7796 49.4481Z" fill="white"/>
<path d="M55.2433 48.1009C55.5308 47.576 55.7319 47.0121 55.8428 46.4066C55.9356 45.8011 55.9266 45.2372 55.8144 44.7123C55.7036 44.1874 55.5115 43.7391 55.242 43.3662C55.0693 43.1271 54.863 42.9257 54.6296 42.7529C54.3396 42.9257 54.065 43.1271 53.8097 43.3662C53.41 43.7391 53.0658 44.1887 52.777 44.7123C52.4882 45.2372 52.2987 45.8024 52.2046 46.4066C52.0937 47.0121 52.0937 47.5773 52.2046 48.1009C52.3168 48.6258 52.5063 49.0741 52.777 49.447C52.9498 49.6861 53.1561 49.8875 53.3894 50.0603C53.6795 49.8875 53.9541 49.6861 54.2107 49.447C54.6116 49.0754 54.9558 48.6258 55.2433 48.1009Z" fill="#336699"/>
<path d="M60.3331 49.4481C60.0636 49.0752 59.8728 48.6269 59.7607 48.102C59.6498 47.577 59.6498 47.0131 59.7607 46.4077C59.8535 45.8022 60.0443 45.2383 60.3331 44.7133C60.6206 44.1884 60.9648 43.7402 61.3658 43.3672C61.621 43.1282 61.8956 42.9268 62.1857 42.754C62.0542 42.6565 61.9163 42.5669 61.7654 42.4902C61.3464 42.2784 60.8862 42.1719 60.3847 42.1719C59.8819 42.1719 59.3894 42.2784 58.9059 42.4902C58.4225 42.702 57.9802 42.9943 57.5806 43.3672C57.1809 43.7402 56.8367 44.1897 56.5479 44.7133C56.2591 45.2383 56.0683 45.8035 55.9755 46.4077C55.8646 47.0131 55.8646 47.5783 55.9755 48.102C56.0877 48.6269 56.2772 49.0752 56.5479 49.4481C56.8174 49.821 57.1616 50.1133 57.5806 50.3251C57.9983 50.5369 58.4586 50.6421 58.9614 50.6421C59.4642 50.6421 59.9566 50.5369 60.4401 50.3251C60.6141 50.2484 60.7817 50.1588 60.9442 50.0613C60.7121 49.8885 60.5046 49.6871 60.3331 49.4481Z" fill="white"/>
<path d="M62.798 48.1009C63.0855 47.576 63.2866 47.0121 63.3975 46.4066C63.4903 45.8011 63.4813 45.2372 63.3692 44.7123C63.2583 44.1874 63.0662 43.7391 62.7967 43.3662C62.624 43.1271 62.4177 42.9257 62.1843 42.7529C61.8943 42.9257 61.6197 43.1271 61.3644 43.3662C60.9647 43.7391 60.6205 44.1887 60.3317 44.7123C60.0429 45.2372 59.8534 45.8024 59.7593 46.4066C59.6484 47.0121 59.6484 47.5773 59.7593 48.1009C59.8715 48.6258 60.061 49.0741 60.3317 49.447C60.5045 49.6861 60.7108 49.8875 60.9441 50.0603C61.2342 49.8875 61.5088 49.6861 61.7653 49.447C62.165 49.0754 62.5092 48.6258 62.798 48.1009Z" fill="#336699"/>
<path d="M52.371 54.074C52.4393 54.3456 52.5682 54.6042 52.7577 54.851C52.9473 55.0979 53.1974 55.3032 53.5081 55.4682C53.8188 55.6319 54.2249 55.7151 54.7251 55.7151C55.2111 55.7151 55.6392 55.6319 56.0105 55.4682C56.3818 55.3032 56.7002 55.0979 56.9658 54.851C57.2314 54.6042 57.448 54.3456 57.6143 54.074C57.7819 53.8025 57.9031 53.5686 57.9778 53.3711H52.2446C52.2614 53.5686 52.3026 53.8025 52.371 54.074Z" fill="white"/>
<path d="M54.2222 21.665C54.1835 21.665 54.1435 21.6598 54.1049 21.6494C53.8702 21.5844 53.7323 21.3388 53.7967 21.1024C53.9772 20.4449 54.0352 19.7901 54.0984 19.0975C54.1203 18.8532 54.1423 18.609 54.1693 18.3647C54.2854 17.3369 54.569 16.3884 54.8681 15.3841C55.1105 14.5733 55.3503 13.7638 55.5913 12.9543C55.8685 12.0188 56.1444 11.0833 56.4203 10.1478L56.918 8.45609L57.1191 7.73107C57.1848 7.4946 57.4285 7.35687 57.6618 7.42184C57.8965 7.4881 58.0331 7.73237 57.9687 7.96885L57.7663 8.70166L57.2673 10.3999C56.9914 11.3367 56.7143 12.2722 56.4371 13.209C56.196 14.0185 55.9562 14.8293 55.7138 15.6387C55.425 16.6054 55.153 17.5175 55.046 18.466C55.0189 18.7038 54.9983 18.9416 54.9764 19.1794C54.9132 19.881 54.8475 20.6073 54.6463 21.3414C54.5922 21.535 54.4156 21.665 54.2222 21.665Z" fill="white"/>
<path d="M41.4253 56.1595C41.4021 56.1595 41.3789 56.1582 41.3544 56.1543C41.1146 56.1153 40.9509 55.8866 40.9895 55.645L44.5736 33.2629C44.6033 33.0823 44.6381 32.903 44.678 32.7302C44.7283 32.5119 44.7863 32.291 44.8521 32.0753C44.9178 31.8622 44.9913 31.6478 45.0725 31.4399C45.1525 31.2334 45.2414 31.0268 45.3355 30.8267C45.4297 30.6266 45.5315 30.4291 45.6385 30.2368C45.7584 30.0224 46.0266 29.947 46.2393 30.0679C46.452 30.1887 46.5268 30.459 46.4069 30.6733C46.3102 30.8475 46.2174 31.0268 46.1323 31.2087C46.0472 31.3906 45.966 31.5777 45.8938 31.7648C45.8203 31.9532 45.7532 32.1468 45.6939 32.3391C45.6346 32.534 45.5818 32.7315 45.5367 32.929C45.5018 33.0849 45.4696 33.246 45.4438 33.4071L41.8598 55.7879C41.825 56.0049 41.638 56.1595 41.4253 56.1595Z" fill="white"/>
<path d="M47.495 28.9385C47.3816 28.9385 47.2681 28.8943 47.1818 28.8072C47.0103 28.6331 47.0116 28.3525 47.1843 28.1797C47.3313 28.0328 47.486 27.8899 47.642 27.7548C47.798 27.6197 47.9605 27.491 48.1229 27.3728C48.2866 27.2519 48.4555 27.1389 48.6244 27.035C48.832 26.9076 49.104 26.9739 49.2303 27.1831C49.3567 27.3923 49.2909 27.6664 49.0834 27.7938C48.9351 27.8847 48.7868 27.9848 48.6425 28.0913C48.4981 28.1965 48.355 28.3109 48.2157 28.4317C48.0765 28.5513 47.9385 28.6799 47.807 28.8111C47.7194 28.8956 47.6072 28.9385 47.495 28.9385Z" fill="white"/>
<path d="M42.6913 75.9022C42.6849 75.9022 42.6784 75.9022 42.6707 75.9022C41.2525 75.8359 39.2813 75.4994 38.5516 73.3425C38.1983 72.3005 38.3891 71.2883 38.5735 70.3099C38.6148 70.0877 38.6586 69.8577 38.6934 69.6355C38.7308 69.4004 38.95 69.2393 39.1846 69.2756C39.4179 69.3133 39.5778 69.5342 39.5417 69.7707C39.5043 70.0059 39.4605 70.2423 39.4167 70.471C39.2452 71.3792 39.084 72.2368 39.3638 73.0632C39.8021 74.3586 40.8039 74.9498 42.7106 75.0381C42.9479 75.0485 43.1309 75.2512 43.1193 75.4903C43.1077 75.7216 42.9182 75.9022 42.6913 75.9022Z" fill="white"/>
</g>
<defs>
<clipPath id="clip0">
<rect width="67" height="82" fill="white" transform="translate(0.5 0.123535)"/>
</clipPath>
</defs>
</svg>
