<svg width="275" height="63" viewBox="0 0 275 63" fill="none" xmlns="http://www.w3.org/2000/svg">
<g clip-path="url(#clip0)">
<path d="M87.1498 30.2105C85.9486 31.5355 84.5102 32.4572 82.8295 32.9755C84.3291 33.3329 85.515 34.1244 86.3847 35.3524C87.2544 36.5804 87.6905 38.0204 87.6905 39.6697C87.6905 40.188 87.6446 40.6884 87.5554 41.1735C87.1065 44.0201 85.816 46.2745 83.6838 47.9391C81.5543 49.6038 78.8381 50.4361 75.5379 50.4361H60.822L66.4023 16.3906H80.6234C83.4722 16.3906 85.6783 17.0212 87.2391 18.2825C88.8 19.5437 89.5804 21.29 89.5804 23.5214C89.5804 24.0703 89.5345 24.6371 89.4452 25.2192C89.1162 27.2208 88.3511 28.8854 87.1498 30.2105ZM79.9934 39.1846C79.9934 38.2476 79.6772 37.5123 79.0472 36.9787C78.4173 36.4451 77.5476 36.1796 76.4381 36.1796H70.8579L69.598 43.8414H75.2675C76.5886 43.8414 77.6368 43.5197 78.4173 42.8713C79.1977 42.2253 79.6925 41.2883 79.9016 40.0578C79.9628 39.6697 79.9934 39.3786 79.9934 39.1846ZM79.9501 29.2914C80.7305 28.6786 81.21 27.7876 81.391 26.6234C81.4216 26.4294 81.4369 26.1715 81.4369 25.8473C81.4369 24.9103 81.1513 24.1903 80.5826 23.6899C80.0113 23.1895 79.1722 22.9393 78.0627 22.9393H73.0181L71.8474 30.213H76.8437C78.1342 30.2105 79.1696 29.9041 79.9501 29.2914Z" fill="#336699"/>
<path d="M94.7118 49.4174C93.0311 48.4804 91.7329 47.1553 90.8199 45.4396C89.9043 43.7265 89.4478 41.7377 89.4478 39.4756C89.4478 36.4043 90.1236 33.6086 91.4728 31.0862C92.8219 28.5637 94.6837 26.5851 97.0531 25.1452C99.4224 23.7078 102.065 22.9878 104.975 22.9878C107.135 22.9878 109.063 23.4652 110.759 24.4175C112.455 25.3724 113.766 26.7051 114.697 28.4182C115.628 30.1313 116.092 32.1202 116.092 34.3822C116.092 37.4868 115.408 40.2926 114.044 42.7972C112.679 45.3043 110.802 47.2677 108.418 48.6897C106.033 50.1118 103.383 50.8241 100.473 50.8241C98.3104 50.8216 96.39 50.3543 94.7118 49.4174ZM104.949 42.4576C105.954 41.633 106.734 40.5658 107.29 39.2561C107.846 37.9463 108.122 36.5804 108.122 35.1584C108.122 33.5423 107.716 32.2964 106.908 31.4232C106.097 30.55 105.077 30.1135 103.847 30.1135C102.557 30.1135 101.424 30.5245 100.45 31.3492C99.4759 32.1738 98.7185 33.2487 98.1778 34.5737C97.6371 35.8988 97.3668 37.2902 97.3668 38.7455C97.3668 40.3309 97.757 41.5513 98.5374 42.4066C99.3178 43.2644 100.323 43.6908 101.552 43.6908C102.812 43.6933 103.944 43.2823 104.949 42.4576Z" fill="#336699"/>
<path d="M121.894 49.4174C120.213 48.4804 118.915 47.1553 118.002 45.4396C117.087 43.7265 116.63 41.7377 116.63 39.4756C116.63 36.4043 117.306 33.6086 118.655 31.0862C120.004 28.5637 121.866 26.5851 124.235 25.1452C126.605 23.7078 129.247 22.9878 132.157 22.9878C134.317 22.9878 136.245 23.4652 137.941 24.4175C139.637 25.3724 140.948 26.7051 141.879 28.4182C142.81 30.1313 143.274 32.1202 143.274 34.3822C143.274 37.4868 142.591 40.2926 141.226 42.7972C139.862 45.3043 137.985 47.2677 135.6 48.6897C133.215 50.1118 130.565 50.8241 127.655 50.8241C125.495 50.8216 123.575 50.3543 121.894 49.4174ZM132.134 42.4576C133.139 41.633 133.919 40.5658 134.475 39.2561C135.031 37.9463 135.307 36.5804 135.307 35.1584C135.307 33.5423 134.901 32.2964 134.093 31.4232C133.282 30.55 132.261 30.1135 131.032 30.1135C129.742 30.1135 128.609 30.5245 127.635 31.3492C126.661 32.1738 125.903 33.2487 125.363 34.5737C124.822 35.8988 124.552 37.2902 124.552 38.7455C124.552 40.3309 124.942 41.5513 125.722 42.4066C126.503 43.2644 127.507 43.6908 128.737 43.6908C129.994 43.6933 131.127 43.2823 132.134 42.4576Z" fill="#336699"/>
<path d="M151.688 43.5965H162.624L161.453 50.4337H141.966L143.09 43.8391L155.738 30.2107H145.386L146.511 23.3735H165.639L164.557 29.9682L151.688 43.5965Z" fill="#336699"/>
<path d="M187.58 25.8218C189.485 27.7137 190.439 30.2923 190.439 33.5577C190.439 34.6249 190.362 35.5797 190.214 36.4197C190.094 37.1626 189.913 37.9567 189.674 38.7966H172.254C172.224 38.9907 172.208 39.297 172.208 39.7183C172.208 41.1404 172.568 42.2254 173.29 42.9684C174.009 43.7113 174.971 44.0841 176.169 44.0841C178.09 44.0841 179.559 43.2109 180.579 41.4646H188.771C187.689 44.2143 185.935 46.461 183.504 48.2048C181.074 49.9511 178.342 50.8242 175.312 50.8242C172.071 50.8242 169.485 49.854 167.549 47.9137C165.613 45.9734 164.646 43.3386 164.646 40.0093C164.646 39.0085 164.736 37.972 164.917 36.9048C165.366 34.0913 166.297 31.6352 167.707 29.534C169.117 27.4328 170.872 25.8167 172.974 24.6832C175.073 23.5521 177.368 22.9854 179.86 22.9854C183.101 22.9854 185.672 23.9325 187.58 25.8218ZM182.742 33.6547C182.742 32.3628 182.367 31.3671 181.617 30.6727C180.867 29.9783 179.878 29.631 178.646 29.631C177.325 29.631 176.162 30.06 175.157 30.9152C174.152 31.7731 173.425 32.9935 172.974 34.5764H182.65C182.711 34.1245 182.742 33.8181 182.742 33.6547Z" fill="#336699"/>
<path d="M216.404 18.7905C218.116 20.3913 218.97 22.4695 218.97 25.0226C218.97 25.7656 218.909 26.4626 218.789 27.1085C218.429 29.3731 217.514 31.3926 216.045 33.1695C214.573 34.949 212.609 36.2077 210.148 36.9532L215.234 50.4361H206.547L202.091 37.5838H200.245L198.131 50.4361H190.434L196.016 16.3906H208.934C212.204 16.3906 214.693 17.1897 216.404 18.7905ZM211.003 26.4294C211.003 25.3954 210.694 24.5937 210.079 24.0295C209.465 23.4652 208.557 23.1818 207.356 23.1818H202.584L201.189 31.7168H205.96C207.371 31.7168 208.488 31.3466 209.314 30.6011C210.138 29.8582 210.671 28.8063 210.911 27.4481C210.975 26.9298 211.003 26.5902 211.003 26.4294Z" fill="#FF6666"/>
<path d="M247.504 23.3733L243.095 50.4334H235.397L235.981 46.7468C234.992 47.9442 233.783 48.9042 232.357 49.6318C230.932 50.3594 229.409 50.7219 227.79 50.7219C225.27 50.7219 223.288 49.9535 221.85 48.4191C220.409 46.8847 219.689 44.7426 219.689 41.9929C219.689 40.9589 219.763 40.022 219.914 39.1794L222.523 23.3682H230.174L227.79 38.0637C227.7 38.582 227.654 39.0824 227.654 39.5675C227.654 40.9258 228.006 41.9674 228.713 42.695C229.417 43.4227 230.401 43.7852 231.661 43.7852C233.102 43.7852 234.324 43.3257 235.329 42.404C236.333 41.4823 237.002 40.1649 237.331 38.4518L239.807 23.3682H247.504V23.3733Z" fill="#FF6666"/>
<path d="M272.84 25.3623C274.281 26.8814 275 29.0005 275 31.7144C275 32.6208 274.911 33.5909 274.73 34.6249L272.118 50.4362H264.467L266.897 35.7406C266.987 35.1917 267.032 34.7066 267.032 34.2854C267.032 32.9271 266.68 31.8778 265.974 31.1323C265.268 30.3894 264.286 30.0166 263.026 30.0166C261.526 30.0166 260.264 30.517 259.246 31.5204C258.226 32.5237 257.565 33.9305 257.267 35.7406V35.4981L254.836 50.4362H247.142L251.551 23.376H259.249L258.665 27.0142C259.654 25.8193 260.863 24.8645 262.289 24.1522C263.714 23.4424 265.252 23.085 266.902 23.085C269.42 23.0824 271.401 23.8432 272.84 25.3623Z" fill="#FF6666"/>
<path d="M29.0746 7.62598H25.6163C24.2161 7.62598 23.0812 8.7621 23.0812 10.1663C23.0812 11.5679 24.2161 12.7041 25.6163 12.7041H29.0746H32.3749C33.775 12.7041 34.91 13.8402 34.91 15.2444C34.91 16.646 33.775 17.7822 32.3749 17.7822H20.2349H10.4924C9.09221 17.7822 7.95728 18.9183 7.95728 20.3225C7.95728 21.7267 9.09221 22.8628 10.4924 22.8628H20.2349H27.348C28.7482 22.8628 29.8857 23.9989 29.8857 25.4006C29.8857 26.8022 28.7507 27.9409 27.348 27.9409H20.2349H15.1851C13.785 27.9409 12.6475 29.077 12.6475 30.4812C12.6475 31.8829 13.7824 33.019 15.1851 33.019H20.2349H22.5787C23.9789 33.019 25.1164 34.1551 25.1164 35.5593C25.1164 36.961 23.9815 38.0971 22.5787 38.0971H20.2349H10.4924C9.09221 38.0971 7.95728 39.2332 7.95728 40.6374C7.95728 42.0391 9.09221 43.1777 10.4924 43.1777H20.2349H18.8118C20.212 43.1777 21.3495 44.3139 21.3495 45.7155C21.3495 47.1171 20.2145 48.2558 18.8118 48.2558H20.2349H15.6059C14.2058 48.2558 13.0708 49.392 13.0708 50.7962C13.0708 52.1978 14.2058 53.3339 15.6059 53.3339H20.2349H37.7715L40.7529 48.2558V43.1726V38.0945V33.0164V27.9383V22.8628L44.9382 17.7847L44.5632 12.7066L44.9382 7.62853H29.0746V7.62598Z" fill="#CCCCCC"/>
<path d="M2.53 33.0038H5.62364C7.02127 33.0038 8.15365 31.8702 8.15365 30.4711C8.15365 29.072 7.02127 27.9385 5.62364 27.9385H2.53C1.13238 27.9385 0 29.072 0 30.4711C0 31.8702 1.13238 33.0038 2.53 33.0038Z" fill="#CCCCCC"/>
<path d="M13.9839 12.6913H15.5294C16.927 12.6913 18.0594 11.5577 18.0594 10.1586C18.0594 8.75955 16.927 7.62598 15.5294 7.62598H13.9839C12.5862 7.62598 11.4539 8.75955 11.4539 10.1586C11.4539 11.5577 12.5862 12.6913 13.9839 12.6913Z" fill="#CCCCCC"/>
<path d="M51.6687 22.4775C51.6355 22.3473 51.5998 22.2171 51.559 22.092C51.5156 21.9592 51.4646 21.829 51.4085 21.7014C51.355 21.5763 51.2938 21.4537 51.2274 21.3363C51.1637 21.2188 51.0923 21.1065 51.0183 20.9993C50.9444 20.892 50.8653 20.7874 50.7811 20.6903C50.6995 20.5933 50.6103 20.4989 50.5184 20.412C50.4266 20.3252 50.3323 20.2435 50.2328 20.1695C50.1333 20.0929 50.0313 20.024 49.9242 19.9627C49.8706 19.9321 49.8171 19.9014 49.761 19.8733C49.6921 19.8376 49.6207 19.8172 49.5493 19.7916C49.5008 19.7738 49.4524 19.7559 49.4065 19.738C49.2738 19.6819 49.1438 19.618 49.0188 19.544C48.8964 19.47 48.7791 19.3883 48.6668 19.2989C48.5546 19.2095 48.4501 19.1125 48.3506 19.0053C48.2511 18.9006 48.1593 18.7883 48.0726 18.6683C47.9884 18.5483 47.9094 18.4232 47.838 18.293C47.5064 17.6751 47.3355 16.922 47.3712 16.0973C47.4044 15.3774 47.6161 14.6574 47.7665 13.94C47.9247 13.1792 47.94 12.4566 47.9553 11.7086C47.968 11.0856 47.9808 10.4652 47.9961 9.84227C48.0114 9.12229 48.0292 8.40488 48.0471 7.68491L48.0802 6.38538L48.3123 0.95752H44.0455L42.5331 6.38538L42.148 7.68491C41.9338 8.40488 41.7195 9.12229 41.5053 9.84227C41.3191 10.4652 41.1329 11.0856 40.9468 11.7086C40.7223 12.4566 40.503 13.1792 40.4188 13.94C40.3372 14.6574 40.3194 15.3748 40.1204 16.0973C39.8934 16.9194 39.4803 17.6726 38.9498 18.293C38.8376 18.4232 38.7177 18.5508 38.5953 18.6683C38.4703 18.7883 38.3428 18.9006 38.2102 19.0053C38.0776 19.11 37.9398 19.2095 37.7996 19.2989C37.6593 19.3883 37.5139 19.47 37.3685 19.544C37.2206 19.618 37.0701 19.6819 36.9197 19.738C36.8661 19.7585 36.8126 19.7763 36.759 19.7916C36.6799 19.8172 36.6009 19.8376 36.5218 19.8733C36.4581 19.9014 36.3943 19.9321 36.3305 19.9627C36.203 20.0265 36.078 20.0955 35.9556 20.1695C35.8332 20.2461 35.7108 20.3252 35.5909 20.412C35.471 20.4989 35.3537 20.5908 35.239 20.6903C35.1242 20.7874 35.012 20.892 34.9049 20.9993C34.7952 21.1065 34.6906 21.2214 34.5886 21.3363C34.4866 21.4537 34.3871 21.5763 34.2928 21.7014C34.2035 21.8188 34.1193 21.9388 34.0377 22.0639C36.9171 22.6179 39.9802 22.9626 43.1631 23.0902C46.272 23.2204 49.3529 22.9907 51.6687 22.4775Z" fill="#336699"/>
<path d="M44.831 25.9546C46.6622 25.9546 49.2151 25.8449 51.6457 25.3751C51.7145 24.9513 51.7502 24.719 51.7502 24.719C51.7706 24.5887 51.7859 24.4611 51.7987 24.3309C51.814 24.17 51.8216 24.0117 51.8242 23.8535C51.8267 23.6977 51.8216 23.542 51.8114 23.3888C51.8012 23.2382 51.7834 23.0875 51.763 22.9394C51.74 22.7939 51.712 22.6484 51.6788 22.508C51.6763 22.4978 51.6737 22.4901 51.6712 22.4799C49.3554 22.9931 46.2745 23.2203 43.1605 23.0952C39.9776 22.965 36.9171 22.6203 34.0351 22.0688C34.03 22.0791 34.0224 22.0867 34.0173 22.0969C33.928 22.2322 33.8464 22.3676 33.7673 22.508C33.6883 22.6484 33.6143 22.7939 33.5429 22.9394C33.474 23.0875 33.4077 23.2382 33.3491 23.3888C33.2878 23.542 33.2343 23.6977 33.1858 23.8535C33.1374 24.0117 33.094 24.1726 33.0583 24.3309C33.0277 24.4611 33.0048 24.5887 32.9818 24.719C32.9818 24.719 32.9792 24.7266 32.9792 24.7419C36.1494 25.3828 39.5312 25.7785 43.0457 25.9215C43.492 25.9368 44.1041 25.9546 44.831 25.9546Z" fill="#FF6666"/>
<path d="M44.2827 0.431472H46.2669H48.2511C48.2486 0.434025 48.3429 0.436578 48.3404 0.439131L48.3174 0.957408H48.6617L48.7408 0.439131C48.7765 0.196588 48.649 0 48.4526 0H44.1807C43.9843 0 43.793 0.196588 43.7497 0.439131L43.6604 0.957408H44.0506L44.196 0.439131C44.1909 0.436578 44.2853 0.434025 44.2827 0.431472Z" fill="#FF6666"/>
<path d="M48.3379 0.4393C48.3404 0.436747 48.2461 0.434194 48.2486 0.431641H46.2644H44.2802C44.2827 0.434194 44.1884 0.436747 44.1909 0.4393L44.0455 0.957577H48.3124L48.3379 0.4393Z" fill="#FF6666"/>
<path d="M47.6467 56.7319C47.3279 58.108 46.7209 58.9123 46.0986 59.382C47.713 60.4033 48.5113 61.7845 48.8888 62.7036C48.9806 62.9308 49.3147 62.8823 49.3402 62.6398C49.631 59.6731 48.8021 57.8527 47.6467 56.7319Z" fill="#FF6666"/>
<path d="M47.6467 56.7324C45.7212 54.8635 42.9004 54.9503 42.9004 54.9503L42.3546 58.1238C43.9359 58.3128 45.1575 58.7876 46.0986 59.3851C47.0907 59.26 48.1695 57.8277 47.6467 56.7324Z" fill="#FF6666"/>
<path d="M27.0216 58.9863C25.6291 60.6382 23.7545 60.2042 22.7293 59.7752C22.5482 59.6986 22.3875 59.9208 22.515 60.0714C25.2797 63.3317 27.5801 62.3973 29.1308 60.8041C28.2126 60.4518 27.4832 59.8135 27.0216 58.9863Z" fill="#FF6666"/>
<path d="M31.2859 57.4777L28.1642 56.7041C27.9296 57.4956 27.6363 58.1185 27.3098 58.6036C27.2154 58.7415 27.1211 58.8691 27.0216 58.9866C27.2333 59.8035 27.7842 60.7431 29.1308 60.8044C29.4113 60.5159 29.6664 60.2069 29.8959 59.898C30.7911 58.6904 31.2859 57.4777 31.2859 57.4777Z" fill="#FF6666"/>
<path d="M22.3058 61.9047C23.0355 61.2452 23.3171 60.3669 22.9349 59.9431C22.5526 59.5193 21.6512 59.7103 20.9215 60.3698C20.1918 61.0293 19.9101 61.9076 20.2924 62.3314C20.6746 62.7552 21.5761 62.5642 22.3058 61.9047Z" fill="#336699"/>
<path d="M50.939 62.3485C51.6687 61.689 51.9503 60.8108 51.5681 60.3869C51.1858 59.9631 50.2844 60.1541 49.5546 60.8137C48.8249 61.4732 48.5433 62.3514 48.9256 62.7752C49.3078 63.1991 50.2093 63.008 50.939 62.3485Z" fill="#336699"/>
<path d="M33.798 47.4593L33.8031 47.4312H33.798L36.9707 27.9665C39.0339 28.3137 41.4772 28.5128 44.0965 28.5128C46.7183 28.5128 49.1616 28.3111 51.23 27.9639C51.4111 26.8278 51.5539 25.9342 51.6457 25.3725C49.2152 25.8449 46.6647 25.9521 44.831 25.9521C44.1067 25.9521 43.492 25.9342 43.0457 25.9163C39.5313 25.7734 36.1494 25.3776 32.9793 24.7368C32.8313 25.6585 28.1284 54.8224 28.1284 54.8224C27.705 57.5057 29.3756 59.6299 31.9056 59.6299H36.7564H41.6073C44.1373 59.6299 46.4913 57.5057 46.93 54.8224C46.93 54.8224 47.4299 51.7076 48.1057 47.4797C46.0297 47.8295 43.5635 48.0031 40.9238 48.0031C38.3071 48.0057 35.8638 47.8065 33.798 47.4593Z" fill="#336699"/>
<path d="M44.0965 28.5156C41.4772 28.5156 39.0365 28.3139 36.9707 27.9692L33.798 47.434H33.8031L33.798 47.4621C35.8613 47.8093 38.3045 48.0084 40.9238 48.0084C43.5635 48.0084 46.0297 47.8348 48.1057 47.485C49.103 41.253 50.4878 32.6056 51.23 27.9692C49.1642 28.3139 46.7183 28.5156 44.0965 28.5156Z" fill="#FF6666"/>
<path d="M40.4367 37.8955C40.2276 37.6095 40.0796 37.2649 39.9955 36.8615C39.9088 36.4581 39.9088 36.0241 39.9955 35.5594C40.0669 35.0947 40.2148 34.6607 40.4367 34.2573C40.6586 33.8539 40.9264 33.5093 41.235 33.2233C41.4339 33.0395 41.6456 32.8838 41.87 32.751C41.768 32.677 41.6609 32.608 41.5461 32.5493C41.2222 32.3859 40.8652 32.3042 40.4775 32.3042C40.0898 32.3042 39.7073 32.3859 39.3349 32.5493C38.96 32.7127 38.6183 32.9374 38.3097 33.2233C38.0011 33.5093 37.7333 33.8539 37.5114 34.2573C37.2895 34.6607 37.1416 35.0947 37.0702 35.5594C36.9834 36.0241 36.9834 36.4581 37.0702 36.8615C37.1569 37.2649 37.3048 37.6095 37.5114 37.8955C37.7205 38.1814 37.9858 38.4061 38.3097 38.5695C38.6336 38.7329 38.9881 38.8146 39.3783 38.8146C39.7659 38.8146 40.1485 38.7329 40.5209 38.5695C40.656 38.5108 40.7835 38.4418 40.9111 38.3678C40.73 38.235 40.5693 38.0793 40.4367 37.8955Z" fill="white"/>
<path d="M42.3444 36.8615C42.5663 36.4581 42.7218 36.024 42.8086 35.5594C42.88 35.0947 42.8723 34.6607 42.7882 34.2573C42.7014 33.8539 42.5535 33.5092 42.3469 33.2233C42.2143 33.0395 42.0536 32.8837 41.8726 32.751C41.6481 32.8837 41.4364 33.0395 41.2375 33.2233C40.9289 33.5092 40.6611 33.8539 40.4392 34.2573C40.2174 34.6607 40.0694 35.0947 39.998 35.5594C39.9113 36.024 39.9113 36.4581 39.998 36.8615C40.0847 37.2648 40.2327 37.6095 40.4392 37.8954C40.5719 38.0793 40.7325 38.235 40.9136 38.3678C41.138 38.235 41.3497 38.0793 41.5487 37.8954C41.8547 37.6095 42.1199 37.2648 42.3444 36.8615Z" fill="#336699"/>
<path d="M46.2796 37.8955C46.0705 37.6095 45.9225 37.2649 45.8384 36.8615C45.7517 36.4581 45.7517 36.0241 45.8384 35.5594C45.9098 35.0947 46.0577 34.6607 46.2796 34.2573C46.5015 33.8539 46.7693 33.5093 47.0779 33.2233C47.2768 33.0395 47.4885 32.8838 47.7129 32.751C47.6109 32.677 47.5038 32.608 47.389 32.5493C47.0651 32.3859 46.7081 32.3042 46.3204 32.3042C45.9327 32.3042 45.5502 32.3859 45.1778 32.5493C44.8029 32.7127 44.4612 32.9374 44.1526 33.2233C43.844 33.5093 43.5762 33.8539 43.3543 34.2573C43.1324 34.6607 42.9845 35.0947 42.9131 35.5594C42.8263 36.0241 42.8263 36.4581 42.9131 36.8615C42.9998 37.2649 43.1477 37.6095 43.3543 37.8955C43.5634 38.1814 43.8287 38.4061 44.1526 38.5695C44.4765 38.7329 44.831 38.8146 45.2212 38.8146C45.6088 38.8146 45.9914 38.7329 46.3638 38.5695C46.4989 38.5108 46.6265 38.4418 46.754 38.3678C46.5729 38.235 46.4122 38.0793 46.2796 37.8955Z" fill="white"/>
<path d="M48.1874 36.8615C48.4093 36.4581 48.5649 36.024 48.6516 35.5594C48.723 35.0947 48.7153 34.6607 48.6312 34.2573C48.5445 33.8539 48.3965 33.5092 48.19 33.2233C48.0573 33.0395 47.8967 32.8837 47.7156 32.751C47.4911 32.8837 47.2795 33.0395 47.0805 33.2233C46.7719 33.5092 46.5041 33.8539 46.2823 34.2573C46.0604 34.6607 45.9124 35.0947 45.841 35.5594C45.7543 36.024 45.7543 36.4581 45.841 36.8615C45.9278 37.2648 46.0757 37.6095 46.2823 37.8954C46.4149 38.0793 46.5756 38.235 46.7566 38.3678C46.9811 38.235 47.1928 38.0793 47.3917 37.8954C47.6977 37.6095 47.963 37.2648 48.1874 36.8615Z" fill="#336699"/>
<path d="M40.123 41.4495C40.1766 41.6588 40.2761 41.858 40.4214 42.0469C40.5668 42.2358 40.7606 42.3941 41.0029 42.5218C41.2427 42.6469 41.5564 42.7107 41.944 42.7107C42.3189 42.7107 42.6505 42.6469 42.9387 42.5218C43.2269 42.3941 43.4717 42.2384 43.6783 42.0469C43.8849 41.858 44.0507 41.6588 44.1807 41.4495C44.3108 41.2401 44.4026 41.0614 44.4613 40.9082H40.0261C40.0363 41.0614 40.0695 41.2401 40.123 41.4495Z" fill="white"/>
<path d="M44.122 5.93604L43.9664 6.49771L43.5813 7.79724C43.3671 8.51721 43.1528 9.23463 42.9386 9.9546C42.7524 10.5776 42.5662 11.198 42.38 11.8209C42.1556 12.569 41.9363 13.2915 41.8521 14.0523C41.7705 14.7697 41.7526 15.4871 41.5537 16.2097" stroke="white" stroke-miterlimit="10" stroke-linecap="round" stroke-linejoin="round"/>
<path d="M35.2109 23.3022C35.1318 23.4427 35.0579 23.5882 34.9865 23.7337C34.9176 23.8818 34.8513 24.0324 34.7926 24.1831C34.7314 24.3362 34.6779 24.492 34.6294 24.6477C34.5809 24.806 34.5376 24.9669 34.5019 25.1252C34.4713 25.2554 34.4483 25.383 34.4254 25.5132C34.4254 25.5132 32.9691 34.5409 31.6531 42.7083" stroke="white" stroke-miterlimit="10" stroke-linecap="round" stroke-linejoin="round"/>
<path d="M37.4017 20.9658C37.2793 21.0424 37.1569 21.1216 37.037 21.2084C36.9171 21.2952 36.7998 21.3871 36.685 21.4866C36.5703 21.5837 36.4581 21.6883 36.351 21.7956" stroke="white" stroke-miterlimit="10" stroke-linecap="round" stroke-linejoin="round"/>
<path d="M29.8704 53.459C29.7276 54.3551 29.4419 55.2538 29.7454 56.1474C30.2045 57.4929 31.3752 57.8324 32.6325 57.8886" stroke="white" stroke-miterlimit="10" stroke-linecap="round" stroke-linejoin="round"/>
</g>
<defs>
<clipPath id="clip0">
<rect width="275" height="63" fill="white"/>
</clipPath>
</defs>
</svg>
