<svg width="275" height="63" viewBox="0 0 275 63" fill="none" xmlns="http://www.w3.org/2000/svg">
<g clip-path="url(#clip0)">
<path d="M87.1499 30.2107C85.9487 31.5358 84.5102 32.4575 82.8295 32.9757C84.3292 33.3332 85.5151 34.1246 86.3848 35.3527C87.2545 36.5807 87.6906 38.0206 87.6906 39.6699C87.6906 40.1882 87.6447 40.6886 87.5554 41.1737C87.1065 44.0204 85.816 46.2748 83.6839 47.9394C81.5543 49.604 78.8381 50.4363 75.5379 50.4363H60.8221L66.4024 16.3909H80.6234C83.4722 16.3909 85.6783 17.0215 87.2392 18.2827C88.8 19.5439 89.5804 21.2902 89.5804 23.5216C89.5804 24.0706 89.5345 24.6373 89.4453 25.2194C89.1163 27.2211 88.3511 28.8857 87.1499 30.2107ZM79.9935 39.1848C79.9935 38.2479 79.6772 37.5126 79.0473 36.979C78.4173 36.4454 77.5476 36.1799 76.4382 36.1799H70.8579L69.598 43.8417H75.2676C76.5887 43.8417 77.6369 43.52 78.4173 42.8715C79.1977 42.2256 79.6925 41.2886 79.9017 40.058C79.9629 39.6699 79.9935 39.3789 79.9935 39.1848ZM79.9501 29.2916C80.7305 28.6789 81.21 27.7879 81.3911 26.6236C81.4217 26.4296 81.437 26.1718 81.437 25.8475C81.437 24.9105 81.1514 24.1906 80.5826 23.6901C80.0113 23.1897 79.1722 22.9395 78.0628 22.9395H73.0181L71.8475 30.2133H76.8437C78.1342 30.2107 79.1697 29.9044 79.9501 29.2916Z" fill="#336699"/>
<path d="M94.7119 49.4176C93.0312 48.4806 91.733 47.1556 90.82 45.4399C89.9044 43.7268 89.4479 41.7379 89.4479 39.4759C89.4479 36.4045 90.1237 33.6089 91.4729 31.0864C92.8221 28.564 94.6839 26.5853 97.0532 25.1454C99.4225 23.708 102.065 22.988 104.975 22.988C107.135 22.988 109.063 23.4655 110.759 24.4178C112.455 25.3726 113.766 26.7053 114.697 28.4185C115.628 30.1316 116.092 32.1204 116.092 34.3825C116.092 37.487 115.408 40.2929 114.044 42.7974C112.68 45.3046 110.802 47.2679 108.418 48.69C106.033 50.112 103.383 50.8244 100.473 50.8244C98.3105 50.8218 96.3901 50.3546 94.7119 49.4176ZM104.949 42.4579C105.954 41.6332 106.735 40.566 107.291 39.2563C107.847 37.9466 108.122 36.5807 108.122 35.1586C108.122 33.5425 107.716 32.2966 106.908 31.4234C106.097 30.5503 105.077 30.1137 103.847 30.1137C102.557 30.1137 101.425 30.5248 100.45 31.3494C99.4761 32.174 98.7186 33.2489 98.1779 34.5739C97.6372 35.899 97.3669 37.2904 97.3669 38.7457C97.3669 40.3312 97.7571 41.5515 98.5375 42.4068C99.3179 43.2647 100.323 43.691 101.552 43.691C102.812 43.6936 103.944 43.2825 104.949 42.4579Z" fill="#336699"/>
<path d="M121.894 49.4176C120.213 48.4806 118.915 47.1556 118.002 45.4399C117.087 43.7268 116.63 41.7379 116.63 39.4759C116.63 36.4045 117.306 33.6089 118.655 31.0864C120.004 28.564 121.866 26.5853 124.235 25.1454C126.605 23.708 129.247 22.988 132.157 22.988C134.317 22.988 136.245 23.4655 137.941 24.4178C139.637 25.3726 140.948 26.7053 141.879 28.4185C142.81 30.1316 143.274 32.1204 143.274 34.3825C143.274 37.487 142.591 40.2929 141.226 42.7974C139.862 45.3046 137.985 47.2679 135.6 48.69C133.215 50.112 130.565 50.8244 127.655 50.8244C125.495 50.8218 123.575 50.3546 121.894 49.4176ZM132.134 42.4579C133.139 41.6332 133.919 40.566 134.475 39.2563C135.031 37.9466 135.307 36.5807 135.307 35.1586C135.307 33.5425 134.901 32.2966 134.093 31.4234C133.282 30.5503 132.261 30.1137 131.032 30.1137C129.742 30.1137 128.609 30.5248 127.635 31.3494C126.661 32.174 125.903 33.2489 125.363 34.5739C124.822 35.899 124.552 37.2904 124.552 38.7457C124.552 40.3312 124.942 41.5515 125.722 42.4068C126.503 43.2647 127.507 43.691 128.737 43.691C129.994 43.6936 131.127 43.2825 132.134 42.4579Z" fill="#336699"/>
<path d="M151.688 43.5965H162.624L161.453 50.4337H141.966L143.09 43.8391L155.738 30.2107H145.386L146.511 23.3735H165.639L164.557 29.9682L151.688 43.5965Z" fill="#336699"/>
<path d="M187.58 25.8221C189.485 27.7139 190.439 30.2925 190.439 33.5579C190.439 34.6251 190.362 35.58 190.214 36.4199C190.094 37.1629 189.913 37.9569 189.674 38.7969H172.254C172.224 38.9909 172.208 39.2973 172.208 39.7185C172.208 41.1406 172.568 42.2257 173.29 42.9686C174.009 43.7116 174.971 44.0843 176.169 44.0843C178.09 44.0843 179.559 43.2112 180.579 41.4648H188.771C187.689 44.2145 185.935 46.4612 183.504 48.205C181.074 49.9513 178.342 50.8245 175.312 50.8245C172.071 50.8245 169.485 49.8543 167.549 47.9139C165.613 45.9736 164.647 43.3388 164.647 40.0096C164.647 39.0088 164.736 37.9722 164.917 36.905C165.366 34.0915 166.297 31.6355 167.707 29.5343C169.117 27.4331 170.872 25.817 172.974 24.6834C175.073 23.5524 177.368 22.9856 179.86 22.9856C183.101 22.9856 185.672 23.9328 187.58 25.8221ZM182.742 33.655C182.742 32.3631 182.367 31.3674 181.617 30.6729C180.867 29.9785 179.878 29.6313 178.646 29.6313C177.325 29.6313 176.162 30.0602 175.157 30.9155C174.152 31.7733 173.425 32.9937 172.974 34.5766H182.65C182.711 34.1247 182.742 33.8184 182.742 33.655Z" fill="#336699"/>
<path d="M216.404 18.7908C218.116 20.3916 218.97 22.4698 218.97 25.0229C218.97 25.7658 218.909 26.4628 218.789 27.1087C218.429 29.3733 217.514 31.3928 216.045 33.1698C214.573 34.9493 212.609 36.2079 210.148 36.9534L215.234 50.4363H206.547L202.092 37.5841H200.245L198.131 50.4363H190.434L196.017 16.3909H208.934C212.204 16.3909 214.693 17.19 216.404 18.7908ZM211.003 26.4296C211.003 25.3956 210.694 24.5939 210.079 24.0297C209.465 23.4655 208.557 23.1821 207.356 23.1821H202.584L201.189 31.7171H205.961C207.371 31.7171 208.488 31.3469 209.314 30.6014C210.138 29.8584 210.671 28.8065 210.911 27.4483C210.975 26.93 211.003 26.5905 211.003 26.4296Z" fill="#FF6666"/>
<path d="M247.504 23.3735L243.094 50.4337H235.397L235.981 46.747C234.992 47.9444 233.783 48.9044 232.357 49.632C230.932 50.3597 229.409 50.7222 227.789 50.7222C225.27 50.7222 223.288 49.9537 221.85 48.4193C220.409 46.8849 219.689 44.7429 219.689 41.9932C219.689 40.9592 219.763 40.0222 219.914 39.1797L222.523 23.3684H230.174L227.789 38.064C227.7 38.5823 227.654 39.0827 227.654 39.5678C227.654 40.926 228.006 41.9677 228.713 42.6953C229.417 43.4229 230.401 43.7855 231.661 43.7855C233.102 43.7855 234.324 43.3259 235.328 42.4042C236.333 41.4826 237.002 40.1652 237.331 38.4521L239.807 23.3684H247.504V23.3735Z" fill="#FF6666"/>
<path d="M272.84 25.3623C274.281 26.8814 275 29.0005 275 31.7144C275 32.6208 274.911 33.5909 274.73 34.6249L272.118 50.4362H264.467L266.897 35.7406C266.987 35.1917 267.033 34.7066 267.033 34.2854C267.033 32.9271 266.681 31.8778 265.974 31.1323C265.268 30.3894 264.286 30.0166 263.026 30.0166C261.526 30.0166 260.264 30.517 259.246 31.5204C258.226 32.5237 257.565 33.9305 257.267 35.7406V35.4981L254.837 50.4362H247.142L251.552 23.376H259.249L258.665 27.0142C259.654 25.8193 260.863 24.8645 262.289 24.1522C263.714 23.4424 265.252 23.085 266.902 23.085C269.42 23.0824 271.401 23.8432 272.84 25.3623Z" fill="#FF6666"/>
<path d="M29.0746 7.62598H25.6163C24.2161 7.62598 23.0812 8.7621 23.0812 10.1663C23.0812 11.5679 24.2161 12.7041 25.6163 12.7041H29.0746H32.3749C33.775 12.7041 34.91 13.8402 34.91 15.2444C34.91 16.646 33.775 17.7822 32.3749 17.7822H20.2349H10.4924C9.09221 17.7822 7.95728 18.9183 7.95728 20.3225C7.95728 21.7267 9.09221 22.8628 10.4924 22.8628H20.2349H27.348C28.7482 22.8628 29.8857 23.9989 29.8857 25.4006C29.8857 26.8022 28.7507 27.9409 27.348 27.9409H20.2349H15.1851C13.785 27.9409 12.6475 29.077 12.6475 30.4812C12.6475 31.8829 13.7824 33.019 15.1851 33.019H20.2349H22.5787C23.9789 33.019 25.1164 34.1551 25.1164 35.5593C25.1164 36.961 23.9815 38.0971 22.5787 38.0971H20.2349H10.4924C9.09221 38.0971 7.95728 39.2332 7.95728 40.6374C7.95728 42.0391 9.09221 43.1777 10.4924 43.1777H20.2349H18.8118C20.212 43.1777 21.3495 44.3139 21.3495 45.7155C21.3495 47.1171 20.2145 48.2558 18.8118 48.2558H20.2349H15.6059C14.2058 48.2558 13.0708 49.392 13.0708 50.7962C13.0708 52.1978 14.2058 53.3339 15.6059 53.3339H20.2349H37.7715L40.7529 48.2558V43.1726V38.0945V33.0164V27.9383V22.8628L44.9382 17.7847L44.5632 12.7066L44.9382 7.62853H29.0746V7.62598Z" fill="#CCCCCC"/>
<path d="M2.53 33.0038H5.62364C7.02127 33.0038 8.15365 31.8702 8.15365 30.4711C8.15365 29.072 7.02127 27.9385 5.62364 27.9385H2.53C1.13238 27.9385 0 29.072 0 30.4711C0 31.8702 1.13238 33.0038 2.53 33.0038Z" fill="#CCCCCC"/>
<path d="M13.9839 12.6913H15.5295C16.9271 12.6913 18.0595 11.5577 18.0595 10.1586C18.0595 8.75955 16.9271 7.62598 15.5295 7.62598H13.9839C12.5863 7.62598 11.4539 8.75955 11.4539 10.1586C11.4539 11.5577 12.5863 12.6913 13.9839 12.6913Z" fill="#CCCCCC"/>
<path d="M51.6687 22.4775C51.6355 22.3473 51.5998 22.2171 51.559 22.092C51.5156 21.9592 51.4646 21.829 51.4085 21.7014C51.355 21.5763 51.2938 21.4537 51.2274 21.3363C51.1637 21.2188 51.0923 21.1065 51.0183 20.9993C50.9444 20.892 50.8653 20.7874 50.7811 20.6903C50.6995 20.5933 50.6103 20.4989 50.5184 20.412C50.4266 20.3252 50.3323 20.2435 50.2328 20.1695C50.1333 20.0929 50.0313 20.024 49.9242 19.9627C49.8706 19.9321 49.8171 19.9014 49.761 19.8733C49.6921 19.8376 49.6207 19.8172 49.5493 19.7916C49.5008 19.7738 49.4524 19.7559 49.4065 19.738C49.2738 19.6819 49.1438 19.618 49.0188 19.544C48.8964 19.47 48.7791 19.3883 48.6668 19.2989C48.5546 19.2095 48.4501 19.1125 48.3506 19.0053C48.2511 18.9006 48.1593 18.7883 48.0726 18.6683C47.9884 18.5483 47.9094 18.4232 47.838 18.293C47.5064 17.6751 47.3355 16.922 47.3712 16.0973C47.4044 15.3774 47.6161 14.6574 47.7665 13.94C47.9247 13.1792 47.94 12.4566 47.9553 11.7086C47.968 11.0856 47.9808 10.4652 47.9961 9.84227C48.0114 9.12229 48.0292 8.40488 48.0471 7.68491L48.0802 6.38538L48.3123 0.95752H44.0455L42.5331 6.38538L42.148 7.68491C41.9338 8.40488 41.7195 9.12229 41.5053 9.84227C41.3191 10.4652 41.1329 11.0856 40.9468 11.7086C40.7223 12.4566 40.503 13.1792 40.4188 13.94C40.3372 14.6574 40.3194 15.3748 40.1204 16.0973C39.8934 16.9194 39.4803 17.6726 38.9498 18.293C38.8376 18.4232 38.7177 18.5508 38.5953 18.6683C38.4703 18.7883 38.3428 18.9006 38.2102 19.0053C38.0776 19.11 37.9398 19.2095 37.7996 19.2989C37.6593 19.3883 37.5139 19.47 37.3685 19.544C37.2206 19.618 37.0701 19.6819 36.9197 19.738C36.8661 19.7585 36.8126 19.7763 36.759 19.7916C36.6799 19.8172 36.6009 19.8376 36.5218 19.8733C36.4581 19.9014 36.3943 19.9321 36.3305 19.9627C36.203 20.0265 36.078 20.0955 35.9556 20.1695C35.8332 20.2461 35.7108 20.3252 35.5909 20.412C35.471 20.4989 35.3537 20.5908 35.239 20.6903C35.1242 20.7874 35.012 20.892 34.9049 20.9993C34.7952 21.1065 34.6906 21.2214 34.5886 21.3363C34.4866 21.4537 34.3871 21.5763 34.2928 21.7014C34.2035 21.8188 34.1193 21.9388 34.0377 22.0639C36.9171 22.6179 39.9802 22.9626 43.1631 23.0902C46.272 23.2204 49.3529 22.9907 51.6687 22.4775Z" fill="#336699"/>
<path d="M44.831 25.9546C46.6622 25.9546 49.2152 25.8449 51.6457 25.3751C51.7146 24.9513 51.7503 24.719 51.7503 24.719C51.7707 24.5887 51.786 24.4611 51.7987 24.3309C51.8141 24.17 51.8217 24.0117 51.8243 23.8535C51.8268 23.6977 51.8217 23.542 51.8115 23.3888C51.8013 23.2382 51.7834 23.0875 51.763 22.9394C51.7401 22.7939 51.712 22.6484 51.6789 22.508C51.6763 22.4978 51.6738 22.4901 51.6712 22.4799C49.3555 22.9931 46.2746 23.2203 43.1605 23.0952C39.9776 22.965 36.9171 22.6203 34.0352 22.0688C34.0301 22.0791 34.0224 22.0867 34.0173 22.0969C33.9281 22.2322 33.8464 22.3676 33.7674 22.508C33.6883 22.6484 33.6144 22.7939 33.543 22.9394C33.4741 23.0875 33.4078 23.2382 33.3491 23.3888C33.2879 23.542 33.2343 23.6977 33.1859 23.8535C33.1374 24.0117 33.0941 24.1726 33.0584 24.3309C33.0278 24.4611 33.0048 24.5887 32.9819 24.719C32.9819 24.719 32.9793 24.7266 32.9793 24.7419C36.1495 25.3828 39.5313 25.7785 43.0458 25.9215C43.4921 25.9368 44.1042 25.9546 44.831 25.9546Z" fill="#FF6666"/>
<path d="M44.2827 0.431472H46.2669H48.2511C48.2486 0.434025 48.3429 0.436578 48.3404 0.439131L48.3174 0.957408H48.6617L48.7408 0.439131C48.7765 0.196588 48.649 0 48.4526 0H44.1807C43.9843 0 43.793 0.196588 43.7497 0.439131L43.6604 0.957408H44.0506L44.196 0.439131C44.1909 0.436578 44.2853 0.434025 44.2827 0.431472Z" fill="#FF6666"/>
<path d="M48.3378 0.439056C48.3404 0.436503 48.246 0.43395 48.2485 0.431396H46.2643H44.2801C44.2827 0.43395 44.1883 0.436503 44.1908 0.439056L44.0455 0.957333H48.3123L48.3378 0.439056Z" fill="#FF6666"/>
<path d="M47.6467 56.7322C47.3279 58.1083 46.7209 58.9125 46.0986 59.3823C47.713 60.4035 48.5113 61.7847 48.8887 62.7038C48.9805 62.9311 49.3146 62.8826 49.3402 62.64C49.6309 59.6733 48.802 57.853 47.6467 56.7322Z" fill="#FF6666"/>
<path d="M47.6466 56.7321C45.7211 54.8633 42.9003 54.9501 42.9003 54.9501L42.3546 58.1236C43.9358 58.3125 45.1574 58.7874 46.0986 59.3848C47.0907 59.2597 48.1695 57.8274 47.6466 56.7321Z" fill="#FF6666"/>
<path d="M27.0215 58.9866C25.629 60.6384 23.7545 60.2044 22.7292 59.7755C22.5481 59.6989 22.3874 59.921 22.515 60.0716C25.2796 63.3319 27.5801 62.3975 29.1307 60.8044C28.2126 60.4521 27.4832 59.8138 27.0215 58.9866Z" fill="#FF6666"/>
<path d="M31.2858 57.4777L28.1641 56.7041C27.9294 57.4956 27.6361 58.1185 27.3097 58.6036C27.2153 58.7415 27.121 58.8691 27.0215 58.9866C27.2332 59.8035 27.7841 60.7431 29.1307 60.8044C29.4112 60.5159 29.6663 60.2069 29.8958 59.898C30.791 58.6904 31.2858 57.4777 31.2858 57.4777Z" fill="#FF6666"/>
<path d="M22.3058 61.9049C23.0355 61.2454 23.3171 60.3672 22.9349 59.9433C22.5526 59.5195 21.6512 59.7105 20.9215 60.3701C20.1918 61.0296 19.9101 61.9078 20.2924 62.3316C20.6746 62.7555 21.5761 62.5644 22.3058 61.9049Z" fill="#336699"/>
<path d="M50.939 62.3485C51.6687 61.689 51.9503 60.8108 51.5681 60.3869C51.1858 59.9631 50.2844 60.1541 49.5546 60.8137C48.8249 61.4732 48.5433 62.3514 48.9256 62.7752C49.3078 63.1991 50.2093 63.008 50.939 62.3485Z" fill="#336699"/>
<path d="M33.798 47.4593L33.8031 47.4312H33.798L36.9707 27.9665C39.0339 28.3137 41.4772 28.5128 44.0965 28.5128C46.7183 28.5128 49.1616 28.3111 51.23 27.9639C51.4111 26.8278 51.5539 25.9342 51.6457 25.3725C49.2152 25.8449 46.6647 25.9521 44.831 25.9521C44.1067 25.9521 43.492 25.9342 43.0457 25.9163C39.5313 25.7734 36.1494 25.3776 32.9793 24.7368C32.8313 25.6585 28.1284 54.8224 28.1284 54.8224C27.705 57.5057 29.3756 59.6299 31.9056 59.6299H36.7564H41.6073C44.1373 59.6299 46.4913 57.5057 46.93 54.8224C46.93 54.8224 47.4299 51.7076 48.1057 47.4797C46.0297 47.8295 43.5635 48.0031 40.9238 48.0031C38.3071 48.0057 35.8638 47.8065 33.798 47.4593Z" fill="#336699"/>
<path d="M44.0965 28.5154C41.4772 28.5154 39.0365 28.3137 36.9707 27.969L33.798 47.4337H33.8031L33.798 47.4618C35.8613 47.809 38.3045 48.0082 40.9238 48.0082C43.5635 48.0082 46.0297 47.8346 48.1057 47.4848C49.103 41.2527 50.4878 32.6054 51.23 27.969C49.1642 28.3137 46.7183 28.5154 44.0965 28.5154Z" fill="#FF6666"/>
<path d="M40.4367 37.8955C40.2276 37.6095 40.0796 37.2649 39.9955 36.8615C39.9088 36.4581 39.9088 36.0241 39.9955 35.5594C40.0669 35.0947 40.2148 34.6607 40.4367 34.2573C40.6586 33.8539 40.9264 33.5093 41.235 33.2233C41.4339 33.0395 41.6456 32.8838 41.87 32.751C41.768 32.677 41.6609 32.608 41.5461 32.5493C41.2222 32.3859 40.8652 32.3042 40.4775 32.3042C40.0898 32.3042 39.7073 32.3859 39.3349 32.5493C38.96 32.7127 38.6183 32.9374 38.3097 33.2233C38.0011 33.5093 37.7333 33.8539 37.5114 34.2573C37.2895 34.6607 37.1416 35.0947 37.0702 35.5594C36.9834 36.0241 36.9834 36.4581 37.0702 36.8615C37.1569 37.2649 37.3048 37.6095 37.5114 37.8955C37.7205 38.1814 37.9858 38.4061 38.3097 38.5695C38.6336 38.7329 38.9881 38.8146 39.3783 38.8146C39.7659 38.8146 40.1485 38.7329 40.5209 38.5695C40.656 38.5108 40.7835 38.4418 40.9111 38.3678C40.73 38.235 40.5693 38.0793 40.4367 37.8955Z" fill="white"/>
<path d="M42.3444 36.8615C42.5663 36.4581 42.7218 36.024 42.8086 35.5594C42.88 35.0947 42.8723 34.6607 42.7882 34.2573C42.7014 33.8539 42.5535 33.5092 42.3469 33.2233C42.2143 33.0395 42.0536 32.8837 41.8726 32.751C41.6481 32.8837 41.4364 33.0395 41.2375 33.2233C40.9289 33.5092 40.6611 33.8539 40.4392 34.2573C40.2174 34.6607 40.0694 35.0947 39.998 35.5594C39.9113 36.024 39.9113 36.4581 39.998 36.8615C40.0847 37.2648 40.2327 37.6095 40.4392 37.8954C40.5719 38.0793 40.7325 38.235 40.9136 38.3678C41.138 38.235 41.3497 38.0793 41.5487 37.8954C41.8547 37.6095 42.1199 37.2648 42.3444 36.8615Z" fill="#336699"/>
<path d="M46.2797 37.8955C46.0705 37.6095 45.9226 37.2649 45.8384 36.8615C45.7517 36.4581 45.7517 36.0241 45.8384 35.5594C45.9098 35.0947 46.0578 34.6607 46.2797 34.2573C46.5015 33.8539 46.7693 33.5093 47.0779 33.2233C47.2769 33.0395 47.4886 32.8838 47.713 32.751C47.611 32.677 47.5039 32.608 47.3891 32.5493C47.0652 32.3859 46.7081 32.3042 46.3205 32.3042C45.9328 32.3042 45.5502 32.3859 45.1779 32.5493C44.803 32.7127 44.4612 32.9374 44.1526 33.2233C43.844 33.5093 43.5762 33.8539 43.3543 34.2573C43.1325 34.6607 42.9845 35.0947 42.9131 35.5594C42.8264 36.0241 42.8264 36.4581 42.9131 36.8615C42.9998 37.2649 43.1478 37.6095 43.3543 37.8955C43.5635 38.1814 43.8287 38.4061 44.1526 38.5695C44.4765 38.7329 44.831 38.8146 45.2212 38.8146C45.6089 38.8146 45.9915 38.7329 46.3638 38.5695C46.499 38.5108 46.6265 38.4418 46.754 38.3678C46.573 38.235 46.4123 38.0793 46.2797 37.8955Z" fill="white"/>
<path d="M48.1874 36.8615C48.4092 36.4581 48.5648 36.024 48.6515 35.5594C48.7229 35.0947 48.7153 34.6607 48.6311 34.2573C48.5444 33.8539 48.3965 33.5092 48.1899 33.2233C48.0573 33.0395 47.8966 32.8837 47.7155 32.751C47.4911 32.8837 47.2794 33.0395 47.0805 33.2233C46.7719 33.5092 46.5041 33.8539 46.2822 34.2573C46.0603 34.6607 45.9124 35.0947 45.841 35.5594C45.7543 36.024 45.7543 36.4581 45.841 36.8615C45.9277 37.2648 46.0756 37.6095 46.2822 37.8954C46.4148 38.0793 46.5755 38.235 46.7566 38.3678C46.981 38.235 47.1927 38.0793 47.3916 37.8954C47.6977 37.6095 47.9629 37.2648 48.1874 36.8615Z" fill="#336699"/>
<path d="M40.123 41.4495C40.1765 41.6588 40.276 41.858 40.4214 42.0469C40.5667 42.2358 40.7606 42.3941 41.0029 42.5218C41.2426 42.6469 41.5563 42.7107 41.944 42.7107C42.3189 42.7107 42.6504 42.6469 42.9386 42.5218C43.2268 42.3941 43.4717 42.2384 43.6782 42.0469C43.8848 41.858 44.0506 41.6588 44.1807 41.4495C44.3107 41.2401 44.4026 41.0614 44.4612 40.9082H40.0261C40.0363 41.0614 40.0694 41.2401 40.123 41.4495Z" fill="white"/>
<path d="M44.122 5.93604L43.9665 6.49771L43.5813 7.79724C43.3671 8.51721 43.1529 9.23463 42.9386 9.9546C42.7525 10.5776 42.5663 11.198 42.3801 11.8209C42.1557 12.569 41.9363 13.2915 41.8522 14.0523C41.7706 14.7697 41.7527 15.4871 41.5538 16.2097" stroke="white" stroke-miterlimit="10" stroke-linecap="round" stroke-linejoin="round"/>
<path d="M35.2109 23.302C35.1318 23.4424 35.0579 23.5879 34.9865 23.7335C34.9176 23.8816 34.8513 24.0322 34.7926 24.1828C34.7314 24.336 34.6779 24.4917 34.6294 24.6475C34.5809 24.8058 34.5376 24.9666 34.5019 25.1249C34.4713 25.2551 34.4483 25.3828 34.4254 25.513C34.4254 25.513 32.9691 34.5407 31.6531 42.708" stroke="white" stroke-miterlimit="10" stroke-linecap="round" stroke-linejoin="round"/>
<path d="M37.4016 20.9661C37.2792 21.0427 37.1568 21.1218 37.0369 21.2086C36.9171 21.2954 36.7998 21.3873 36.685 21.4869C36.5702 21.5839 36.458 21.6886 36.3509 21.7958" stroke="white" stroke-miterlimit="10" stroke-linecap="round" stroke-linejoin="round"/>
<path d="M29.8704 53.4592C29.7275 54.3554 29.4419 55.254 29.7454 56.1476C30.2045 57.4931 31.3751 57.8327 32.6324 57.8888" stroke="white" stroke-miterlimit="10" stroke-linecap="round" stroke-linejoin="round"/>
</g>
<defs>
<clipPath id="clip0">
<rect width="275" height="63" fill="white"/>
</clipPath>
</defs>
</svg>
