<svg width="39" height="58" viewBox="0 0 39 58" fill="none" xmlns="http://www.w3.org/2000/svg">
<path d="M36.2764 29.1901H36.1973C34.6965 29.1901 33.4331 30.4 33.4331 31.9552V34.0811C33.4331 34.4801 33.1325 34.8361 32.7143 34.8833C32.2148 34.9413 31.7922 34.5723 31.7922 34.1111V30.1297C31.7922 28.5744 30.601 27.3088 29.1025 27.3088C27.595 27.3088 26.4038 28.5744 26.4038 30.1297V34.3213C26.4038 34.7203 26.1032 35.0743 25.6851 35.1236C25.1856 35.1815 24.7629 34.8126 24.7629 34.3513V28.9734C24.7629 27.4182 23.5266 26.189 22.0258 26.189H21.9467C20.4844 26.189 19.2616 27.3538 19.2616 28.8554V34.8812C19.2616 35.2802 18.961 35.6342 18.5428 35.6835C18.0433 35.7414 17.6207 35.3724 17.6207 34.9112V29.0313C17.6207 29.012 17.6184 28.9927 17.6184 28.9734C17.6184 28.9262 17.6207 28.8769 17.6207 28.8297V15.0792C17.6207 13.5239 16.3843 12.2583 14.8836 12.2583C13.3828 12.2583 12.1465 13.5218 12.1465 15.077L12.1306 37.8758C12.1306 38.2041 11.9136 38.4979 11.5859 38.6095C11.2604 38.721 10.8966 38.6245 10.6773 38.3714L7.80911 35.0571C7.05194 34.1583 5.9354 33.5984 4.72619 33.5104C3.54184 33.4354 2.38009 33.8322 1.51669 34.6045C1.50765 34.6131 1.49635 34.6238 1.48505 34.6324C1.15732 34.8919 1.06465 35.3338 1.26129 35.6942L10.8672 53.2159C12.438 56.0797 15.4057 57.8709 18.6129 57.8709H30.1083C34.9994 57.8709 38.9842 53.7865 38.9887 48.7819C38.9909 46.1326 38.9932 44.144 38.9955 42.5437C39.0022 38.2641 39.0022 36.6896 38.9909 31.9745C38.9932 30.4235 37.7727 29.1901 36.2764 29.1901Z" fill="#336699"/>
<path d="M19.3115 7.24495C16.5654 5.73476 13.1525 5.73476 10.4041 7.24495C7.65791 8.75515 5.95824 11.5632 5.96954 14.575C5.96954 15.3387 6.62274 15.9586 7.42737 15.9586C8.23201 15.9586 8.88521 15.3387 8.88521 14.5728C8.87617 12.5478 10.0176 10.6579 11.8642 9.64325C13.7108 8.62859 16.0049 8.62859 17.8515 9.64325C19.698 10.6579 20.8394 12.5478 20.8304 14.575C20.8304 15.3387 21.4836 15.9586 22.2882 15.9586C23.0929 15.9586 23.7461 15.3387 23.7461 14.5771C23.7574 11.5632 22.0577 8.75301 19.3115 7.24495Z" fill="#FF6666"/>
<path d="M1.47602 15.5539C2.29196 15.5539 2.95194 14.9275 2.95194 14.1531C2.93386 10.1051 5.19859 6.35749 8.8895 4.32816C12.5804 2.29882 17.1325 2.29882 20.8211 4.32816C24.5098 6.35749 26.7768 10.1051 26.7587 14.1531C26.7587 14.9275 27.4209 15.5539 28.2346 15.5539C29.0506 15.5539 29.7105 14.9275 29.7105 14.1531C29.7309 9.10332 26.9034 4.42684 22.2993 1.89767C17.6953 -0.631486 12.0154 -0.633631 7.41133 1.89767C2.80729 4.42898 -0.0202328 9.10332 0.000109023 14.1531C0.000109023 14.9275 0.66235 15.5539 1.47602 15.5539Z" fill="#FF6666"/>
</svg>
