<svg width="58" height="50" viewBox="0 0 58 50" fill="none" xmlns="http://www.w3.org/2000/svg">
<path d="M11.0151 9.69388C7.72977 10.5787 6.76062 11.5218 5.8555 14.7259C5.78505 14.9757 5.42215 14.9757 5.35171 14.7259C4.44659 11.5218 3.47744 10.5766 0.192124 9.69388C-0.0640412 9.62517 -0.0640412 9.27125 0.192124 9.20254C3.47744 8.31772 4.44659 7.37461 5.35171 4.17053C5.42215 3.9207 5.78505 3.9207 5.8555 4.17053C6.76275 7.37461 7.72977 8.31981 11.0151 9.20254C11.2712 9.27125 11.2712 9.62517 11.0151 9.69388Z" fill="#336699"/>
<path d="M19.0139 3.57308C16.9581 4.12686 16.3519 4.71813 15.7841 6.723C15.7392 6.87915 15.5129 6.87915 15.4703 6.723C14.9024 4.71813 14.2962 4.12686 12.2404 3.57308C12.0803 3.52936 12.0803 3.30867 12.2404 3.26703C14.2962 2.71325 14.9024 2.12199 15.4703 0.117107C15.5151 -0.0390358 15.7414 -0.0390358 15.7841 0.117107C16.3519 2.12199 16.9581 2.71325 19.0139 3.26703C19.174 3.31076 19.174 3.53144 19.0139 3.57308Z" fill="#FF6666"/>
<path d="M57.8078 44.7805C54.5225 45.6653 53.5533 46.6084 52.6482 49.8125C52.5778 50.0623 52.2149 50.0623 52.1444 49.8125C51.2372 46.6084 50.2702 45.6633 46.9848 44.7805C46.7287 44.7118 46.7287 44.3579 46.9848 44.2892C50.2702 43.4044 51.2393 42.4613 52.1444 39.2572C52.2149 39.0074 52.5778 39.0074 52.6482 39.2572C53.5555 42.4613 54.5225 43.4065 57.8078 44.2892C58.064 44.3579 58.064 44.7118 57.8078 44.7805Z" fill="#336699"/>
<path d="M28.3127 49.9498C40.5185 49.9498 50.4133 40.2997 50.4133 28.3957C50.4133 16.4917 40.5185 6.84155 28.3127 6.84155C16.1068 6.84155 6.21204 16.4917 6.21204 28.3957C6.21204 40.2997 16.1068 49.9498 28.3127 49.9498Z" fill="#FF6666"/>
<path d="M34.8662 34.8913C34.3603 35.697 33.6153 36.3549 32.629 36.865C31.6428 37.375 30.4751 37.6582 29.126 37.7102V39.815H27.4203V37.6831C25.5375 37.527 24.0198 36.9774 22.8649 36.0343C21.71 35.0912 21.0973 33.8045 21.0269 32.1765H25.8748C25.9815 33.2153 26.496 33.8836 27.4203 34.1772V30.0716C26.0349 29.726 24.9291 29.3867 24.103 29.0577C23.2769 28.7288 22.5532 28.2 21.932 27.4734C21.3108 26.7468 20.9991 25.7496 20.9991 24.4858C20.9991 22.9098 21.599 21.6461 22.7966 20.6926C23.9963 19.7411 25.5354 19.204 27.4182 19.0811V16.9763H29.1238V19.0811C30.9896 19.2206 32.4625 19.7474 33.5469 20.6655C34.6292 21.5836 35.2334 22.8578 35.3593 24.4837H30.4836C30.3769 23.549 29.9244 22.9431 29.126 22.6641V26.6906C30.6011 27.0903 31.7367 27.4442 32.5351 27.7565C33.3335 28.0688 34.0486 28.5831 34.6805 29.3034C35.3102 30.0217 35.6262 31.0043 35.6262 32.2514C35.6262 33.207 35.3721 34.0856 34.8662 34.8913ZM26.2356 25.3686C26.511 25.6642 26.9059 25.9224 27.4203 26.1472V22.5351C26.923 22.6225 26.5323 22.8078 26.2484 23.093C25.9645 23.3782 25.8214 23.7738 25.8214 24.2755C25.8236 24.7107 25.9602 25.075 26.2356 25.3686ZM30.3919 33.6296C30.7035 33.3007 30.8572 32.8926 30.8572 32.4075C30.8572 31.9579 30.7099 31.5894 30.4175 31.3041C30.125 31.0189 29.6938 30.7712 29.126 30.563V34.2521C29.6596 34.1668 30.0802 33.9586 30.3919 33.6296Z" fill="#336699"/>
<path d="M9.95432 29.4367C9.36514 29.4367 8.88696 28.9704 8.88696 28.3958C8.88696 17.9487 17.603 9.44824 28.315 9.44824C28.9042 9.44824 29.3823 9.91459 29.3823 10.4892C29.3823 11.0638 28.9042 11.5302 28.315 11.5302C18.7792 11.5302 11.0217 19.0958 11.0217 28.3958C11.0217 28.9704 10.5435 29.4367 9.95432 29.4367Z" fill="white"/>
<path d="M28.3127 47.3434C27.7235 47.3434 27.2454 46.8771 27.2454 46.3025C27.2454 45.7279 27.7235 45.2615 28.3127 45.2615C32.0613 45.2615 35.6284 44.1123 38.6255 41.9346C39.0973 41.5911 39.7676 41.6868 40.1198 42.149C40.472 42.6112 40.3738 43.2628 39.8999 43.6064C36.5313 46.0506 32.5245 47.3434 28.3127 47.3434Z" fill="white"/>
<path d="M42.9675 40.2232C42.7433 40.2232 42.517 40.1545 42.3249 40.0129C41.8553 39.6652 41.7614 39.0136 42.1179 38.5555C42.8821 37.5687 43.5353 36.5007 44.0583 35.3806C44.3038 34.858 44.9357 34.627 45.4715 34.8643C46.0073 35.1037 46.2442 35.72 46.0009 36.2425C45.4117 37.5021 44.6795 38.7034 43.8214 39.811C43.61 40.0816 43.2919 40.2232 42.9675 40.2232Z" fill="white"/>
</svg>
