<svg width="46" height="58" viewBox="0 0 46 58" fill="none" xmlns="http://www.w3.org/2000/svg">
<g clip-path="url(#clip0)">
<path d="M13.6043 57.7935L12.7938 52.1048C12.4211 49.4794 9.37482 48.1741 7.18745 49.7026L2.4464 53.014C2.24851 53.1537 1.98956 52.9452 2.0864 52.7241L11.0022 32.3072C11.0548 32.1862 11.1959 32.1299 11.318 32.1821L22.8527 37.1242C22.9748 37.1763 23.0317 37.316 22.979 37.437L14.0632 57.8539C13.9685 58.0771 13.6401 58.0333 13.6043 57.7935Z" fill="#336699"/>
<path d="M32.3958 57.7935L33.2064 52.1048C33.579 49.4794 36.6253 48.1741 38.8127 49.7026L43.5537 53.014C43.7516 53.1537 44.0106 52.9452 43.9137 52.7241L34.998 32.3072C34.9453 32.1862 34.8043 32.1299 34.6822 32.1821L23.1474 37.1242C23.0253 37.1763 22.9685 37.316 23.0211 37.437L31.9369 57.8539C32.0316 58.0771 32.3622 58.0333 32.3958 57.7935Z" fill="#336699"/>
<path d="M25.9944 1.57011C28.0386 -1.38682 32.7144 0.118751 32.6133 3.70126C32.5417 6.22654 35.0533 8.03239 37.4554 7.18577C40.8638 5.98465 43.7544 9.92374 41.5459 12.7639C39.9901 14.7658 40.9501 17.6893 43.3965 18.4025C46.8659 19.4159 46.8659 24.2851 43.3965 25.2964C40.9501 26.0096 39.9923 28.9352 41.5459 30.935C43.7523 33.7752 40.8638 37.7143 37.4554 36.5132C35.0533 35.6665 32.5417 37.4745 32.6133 39.9977C32.7144 43.5802 28.0386 45.0837 25.9944 42.1288C24.5523 40.0456 21.4491 40.0456 20.0091 42.1288C17.9649 45.0857 13.2891 43.5802 13.3901 39.9977C13.4617 37.4724 10.9501 35.6665 8.54804 36.5132C5.13962 37.7143 2.24909 33.7752 4.45751 30.935C6.0133 28.9332 5.0533 26.0096 2.60699 25.2964C-0.862486 24.283 -0.862486 19.4139 2.60699 18.4025C5.0533 17.6893 6.0112 14.7637 4.45751 12.7639C2.24699 9.92374 5.13541 5.98465 8.54383 7.18577C10.9459 8.03239 13.4575 6.22445 13.3859 3.70126C13.287 0.118751 17.9628 -1.38682 20.007 1.57011C21.4491 3.6533 24.5523 3.6533 25.9944 1.57011Z" fill="#FF6666"/>
<path d="M23 37.5767C31.7691 37.5767 38.8779 30.5354 38.8779 21.8495C38.8779 13.1636 31.7691 6.12231 23 6.12231C14.2308 6.12231 7.12207 13.1636 7.12207 21.8495C7.12207 30.5354 14.2308 37.5767 23 37.5767Z" fill="#336699"/>
<path d="M23.4589 13.8672L25.4778 17.9168C25.5515 18.067 25.6968 18.1691 25.8631 18.1942L30.3768 18.8427C30.7957 18.9032 30.962 19.412 30.6589 19.706L27.3936 22.8589C27.2736 22.9757 27.2189 23.1425 27.2462 23.3073L28.0168 27.7593C28.0883 28.1722 27.6504 28.4871 27.2757 28.2932L23.2399 26.1912C23.0904 26.1141 22.9136 26.1141 22.7641 26.1912L18.7283 28.2932C18.3536 28.4892 17.9157 28.1722 17.9873 27.7593L18.7578 23.3073C18.7852 23.1425 18.7304 22.9757 18.6104 22.8589L15.3431 19.706C15.0399 19.414 15.2062 18.9032 15.6252 18.8427L20.1389 18.1942C20.3052 18.1712 20.4483 18.067 20.5241 17.9168L22.5431 13.8672C22.7283 13.4919 23.2715 13.4919 23.4589 13.8672Z" fill="white"/>
</g>
<defs>
<clipPath id="clip0">
<rect width="46" height="58" fill="white"/>
</clipPath>
</defs>
</svg>
